<?xml version="1.0" standalone="no"?>
<!DOCTYPE svg PUBLIC "-//W3C//DTD SVG 20010904//EN"
 "http://www.w3.org/TR/2001/REC-SVG-20010904/DTD/svg10.dtd">
<svg version="1.0" xmlns="http://www.w3.org/2000/svg"
 width="4054.000000pt" height="4054.000000pt" viewBox="0 0 4054.000000 4054.000000"
 preserveAspectRatio="xMidYMid meet">
<metadata>
Created by potrace 1.11, written by Peter Selinger 2001-2013
</metadata>
<g transform="translate(0.000000,4054.000000) scale(0.100000,-0.100000)"
fill="#000000" stroke="none">
<path d="M19658 40535 c-2 -1 -79 -6 -173 -9 -343 -13 -673 -34 -980 -61 -27
-2 -79 -7 -115 -10 -62 -5 -112 -10 -210 -21 -25 -2 -67 -6 -95 -9 -27 -2 -66
-7 -85 -9 -19 -3 -80 -10 -135 -16 -55 -6 -111 -13 -125 -15 -14 -2 -52 -7
-85 -11 -33 -3 -69 -8 -80 -10 -11 -2 -56 -8 -100 -14 -44 -6 -89 -12 -100
-14 -11 -2 -42 -7 -70 -10 -56 -8 -107 -15 -145 -21 -14 -3 -43 -7 -65 -10
-22 -3 -62 -10 -90 -15 -46 -8 -70 -12 -160 -26 -16 -3 -64 -11 -105 -19 -41
-8 -93 -17 -115 -20 -22 -4 -48 -9 -58 -11 -10 -3 -34 -8 -54 -10 -20 -3 -57
-9 -82 -15 -25 -6 -59 -13 -76 -16 -16 -2 -136 -27 -265 -54 -129 -28 -244
-52 -255 -54 -138 -29 -696 -167 -870 -215 -60 -17 -117 -32 -125 -34 -59 -15
-312 -89 -500 -146 -431 -132 -848 -275 -1325 -455 -137 -52 -611 -244 -685
-278 -19 -8 -89 -39 -155 -68 -66 -28 -136 -59 -155 -67 -19 -9 -37 -16 -40
-17 -11 -3 -181 -82 -405 -188 -137 -65 -708 -351 -810 -407 -194 -105 -320
-175 -485 -268 -792 -447 -1650 -1017 -2379 -1580 -108 -83 -475 -377 -551
-440 -36 -30 -87 -73 -114 -96 -117 -97 -414 -354 -446 -386 -3 -3 -27 -25
-55 -49 -584 -515 -1237 -1183 -1863 -1905 -60 -70 -285 -340 -362 -436 -47
-58 -90 -112 -97 -120 -7 -8 -60 -76 -118 -150 -58 -74 -111 -142 -118 -150
-149 -186 -543 -739 -772 -1080 -220 -329 -655 -1024 -655 -1046 0 -3 -20 -37
-44 -77 -189 -314 -646 -1188 -811 -1552 -15 -33 -60 -132 -100 -221 -61 -134
-125 -279 -212 -484 -8 -19 -20 -48 -28 -65 -7 -16 -27 -64 -43 -105 -17 -41
-47 -115 -67 -165 -168 -415 -374 -994 -515 -1445 -28 -91 -59 -192 -70 -225
-29 -93 -171 -591 -185 -653 -3 -9 -9 -35 -15 -57 -16 -61 -15 -56 -70 -275
-28 -113 -62 -254 -75 -315 -75 -338 -94 -423 -99 -450 -2 -16 -14 -77 -26
-135 -12 -58 -24 -116 -26 -130 -10 -56 -44 -236 -48 -256 -2 -12 -7 -37 -10
-55 -3 -19 -8 -45 -10 -59 -3 -14 -7 -43 -11 -65 -3 -22 -7 -47 -10 -55 -2 -8
-6 -37 -10 -64 -3 -27 -8 -52 -10 -55 -2 -4 -6 -33 -9 -66 -4 -33 -9 -67 -11
-75 -2 -8 -6 -31 -9 -50 -14 -107 -19 -137 -22 -155 -3 -17 -32 -234 -50 -375
-2 -19 -6 -51 -9 -70 -2 -19 -7 -55 -10 -80 -5 -41 -8 -69 -19 -180 -2 -19 -7
-64 -11 -100 -8 -72 -11 -112 -20 -215 -3 -38 -7 -79 -9 -90 -2 -11 -7 -69
-10 -130 -4 -60 -9 -128 -11 -150 -7 -70 -21 -287 -30 -465 -16 -332 -20 -508
-20 -1040 0 -524 5 -766 20 -1040 12 -213 16 -280 20 -335 3 -33 7 -100 10
-150 4 -49 8 -106 10 -125 2 -19 7 -70 10 -114 3 -43 7 -93 10 -110 2 -17 7
-67 10 -111 3 -44 8 -93 10 -110 2 -16 7 -57 10 -90 4 -33 8 -73 10 -90 2 -16
9 -73 15 -125 6 -52 13 -108 15 -125 2 -16 7 -55 10 -85 3 -30 8 -66 10 -80 6
-44 16 -114 20 -140 2 -14 6 -45 10 -70 5 -45 23 -164 31 -210 9 -53 24 -147
29 -185 12 -75 16 -100 20 -115 2 -8 6 -33 10 -55 3 -22 10 -66 16 -97 5 -32
12 -70 15 -85 2 -16 13 -73 24 -128 11 -55 22 -115 25 -133 37 -221 250 -1134
335 -1437 35 -123 51 -183 56 -204 3 -14 7 -28 10 -33 3 -4 7 -16 9 -25 14
-68 165 -554 260 -838 160 -480 467 -1281 628 -1635 13 -30 39 -89 57 -130 35
-80 65 -147 125 -275 20 -44 48 -105 62 -135 43 -94 319 -648 391 -785 94
-180 200 -373 322 -590 22 -40 268 -459 304 -518 248 -408 642 -1002 890
-1342 70 -95 429 -573 458 -609 12 -16 88 -111 167 -210 80 -100 148 -183 151
-186 3 -3 35 -41 71 -85 36 -45 77 -94 91 -110 14 -17 67 -79 119 -140 51 -60
107 -126 125 -145 17 -19 71 -80 120 -135 49 -55 93 -105 99 -111 5 -6 48 -53
95 -104 209 -229 461 -490 720 -745 206 -203 226 -223 495 -475 200 -187 665
-590 920 -798 372 -302 932 -726 1221 -922 36 -25 71 -49 78 -55 6 -5 19 -14
28 -20 9 -5 98 -65 197 -132 99 -68 184 -123 190 -123 5 0 11 -3 13 -8 9 -22
729 -467 1018 -629 19 -11 87 -49 150 -85 63 -36 171 -96 240 -133 69 -37 149
-81 178 -97 84 -46 685 -348 828 -415 579 -274 1240 -549 1789 -745 77 -27
177 -63 223 -80 171 -61 848 -279 932 -299 19 -4 60 -15 90 -24 92 -28 325
-93 353 -100 10 -2 27 -7 37 -10 10 -3 27 -8 37 -10 10 -2 142 -35 293 -74
152 -38 287 -72 300 -75 14 -2 88 -19 165 -36 144 -33 547 -117 600 -125 17
-3 41 -8 55 -10 56 -12 80 -16 185 -35 162 -30 259 -46 320 -55 17 -2 89 -14
160 -25 72 -11 164 -25 205 -31 41 -5 86 -12 100 -14 91 -14 220 -30 305 -40
28 -3 82 -10 120 -15 39 -5 95 -12 125 -15 30 -3 73 -8 95 -10 22 -2 67 -7
100 -10 33 -3 76 -8 95 -10 19 -2 69 -7 110 -10 41 -3 91 -8 110 -10 19 -2 73
-7 120 -10 47 -3 105 -8 130 -10 25 -3 83 -7 130 -10 47 -2 132 -7 190 -11
373 -23 610 -29 1175 -29 512 0 814 6 1065 20 41 2 120 7 175 10 149 8 335 21
430 29 28 3 84 8 125 11 41 3 93 8 115 10 22 2 65 7 95 9 56 6 129 13 210 21
25 3 61 7 80 10 39 5 98 12 180 20 30 3 62 8 70 10 8 2 42 7 75 10 82 8 94 10
385 51 19 3 60 9 90 14 30 5 78 12 105 15 28 4 57 8 65 10 15 4 30 7 140 24
36 6 76 13 90 16 14 3 52 10 85 15 103 17 114 19 195 35 14 3 40 8 59 11 18 3
41 7 50 9 9 2 66 13 126 25 171 34 327 67 490 105 61 14 139 32 175 40 153 33
705 176 895 232 66 19 127 36 135 38 23 5 331 99 475 145 399 127 1013 344
1202 426 17 8 34 14 38 14 4 0 21 6 38 14 18 8 113 47 212 87 99 39 200 80
225 91 25 11 54 24 65 28 11 5 51 23 88 39 38 17 70 31 73 31 4 0 23 8 159 70
39 18 95 43 125 57 233 106 281 128 605 289 383 190 566 286 930 489 168 93
630 367 786 465 21 14 85 54 142 89 119 75 520 341 653 433 50 35 113 78 140
97 66 45 177 124 189 134 6 4 94 69 196 145 331 244 882 677 1004 789 11 10
45 38 75 63 30 25 71 59 90 76 19 17 96 84 170 149 158 138 329 292 455 410
285 267 540 519 801 791 206 214 216 224 344 365 47 51 108 118 136 149 28 30
83 93 124 140 40 47 76 87 79 90 8 7 147 170 255 300 48 58 97 115 107 128 97
114 425 531 548 697 29 39 60 80 69 92 48 61 293 402 372 518 30 44 57 82 60
85 6 5 287 428 362 545 113 174 218 346 218 354 0 5 4 11 8 13 5 2 33 45 63
96 30 51 75 127 101 170 26 42 51 83 55 91 3 8 37 67 73 130 282 488 589 1083
825 1596 135 294 145 316 145 320 0 2 13 32 29 67 16 35 41 92 56 128 15 36
33 79 40 95 8 17 30 71 50 120 20 50 40 99 45 110 19 40 153 384 215 550 151
406 258 722 415 1230 70 224 260 922 285 1045 2 8 14 62 28 120 14 58 28 116
30 130 3 14 10 43 16 65 8 32 99 458 115 540 2 11 19 97 36 190 18 94 34 177
35 186 2 9 6 34 9 55 4 22 13 75 21 119 8 44 17 98 20 120 3 22 12 78 20 125
8 47 17 105 20 130 3 25 8 56 10 70 2 14 7 45 10 70 4 25 8 56 10 70 2 14 11
81 20 150 9 69 18 139 20 155 4 32 14 110 20 160 2 17 6 59 10 95 3 36 8 76
10 90 2 14 6 52 9 85 4 33 8 80 11 105 12 124 20 216 30 340 2 36 7 99 10 140
14 187 15 196 30 470 16 284 20 499 20 1050 -1 607 -7 863 -29 1205 -3 44 -8
121 -11 170 -3 50 -8 113 -10 140 -3 28 -7 82 -10 120 -3 39 -8 95 -11 125 -7
75 -12 133 -19 215 -3 39 -8 86 -10 105 -2 19 -7 62 -10 96 -3 33 -7 71 -10
85 -2 13 -6 55 -10 92 -3 37 -8 77 -10 87 -2 10 -6 45 -10 77 -3 32 -8 69 -10
83 -2 14 -7 48 -10 75 -5 42 -14 112 -40 285 -2 14 -6 43 -9 65 -8 55 -75 465
-80 491 -2 12 -7 37 -10 55 -8 50 -16 91 -21 119 -3 14 -7 34 -9 45 -43 229
-40 214 -72 365 -14 69 -28 136 -31 150 -2 14 -8 41 -13 60 -5 19 -11 48 -14
64 -17 96 -176 742 -232 943 -20 71 -39 142 -44 158 -93 357 -376 1226 -528
1620 -17 44 -63 163 -102 265 -39 102 -75 194 -80 205 -5 11 -51 119 -101 240
-78 188 -220 510 -339 770 -91 197 -413 836 -523 1037 -20 38 -54 98 -74 135
-20 38 -49 90 -65 116 -15 26 -28 50 -28 52 0 3 -18 34 -40 70 -22 36 -40 67
-40 69 0 13 -297 506 -452 751 -38 61 -75 119 -81 129 -7 11 -82 125 -168 255
-346 523 -727 1042 -1118 1526 -104 128 -241 295 -251 305 -3 3 -39 45 -80 95
-41 49 -84 99 -95 111 -11 12 -40 45 -64 74 -25 29 -50 58 -56 64 -5 6 -64 72
-130 145 -66 74 -131 147 -145 162 -14 14 -70 75 -125 134 -318 343 -770 791
-1151 1141 -281 258 -624 553 -979 842 -67 55 -354 279 -430 336 -49 37 -97
73 -105 79 -41 33 -218 163 -320 236 -63 46 -124 89 -135 97 -155 114 -661
454 -674 454 -5 0 -11 4 -13 8 -7 18 -745 472 -955 589 -27 14 -83 46 -126 70
-42 24 -99 55 -125 70 -26 14 -60 33 -77 43 -28 16 -89 49 -330 177 -110 59
-801 403 -808 403 -3 0 -56 24 -118 54 -63 29 -148 68 -189 86 -41 18 -97 43
-125 56 -245 113 -941 392 -1250 501 -38 13 -79 28 -90 33 -53 24 -774 264
-860 286 -9 3 -185 56 -346 105 -37 11 -75 22 -85 24 -27 6 -160 43 -224 61
-30 9 -63 18 -72 20 -10 2 -26 6 -35 9 -208 56 -835 205 -1013 241 -46 9 -125
25 -135 28 -5 2 -28 6 -50 10 -22 4 -69 14 -105 21 -36 8 -81 17 -100 19 -19
3 -84 15 -145 26 -60 11 -123 23 -140 26 -128 22 -257 44 -290 49 -22 3 -51 8
-65 10 -65 11 -220 34 -265 40 -55 7 -176 23 -215 30 -14 2 -50 6 -81 10 -31
3 -66 7 -77 10 -12 2 -52 7 -89 10 -37 4 -75 8 -83 10 -8 3 -44 7 -80 10 -36
3 -81 7 -100 10 -19 3 -60 7 -90 10 -30 3 -75 7 -100 10 -25 3 -74 7 -110 10
-36 3 -85 7 -110 10 -25 3 -79 7 -120 10 -41 3 -102 7 -135 10 -206 16 -197
15 -485 30 -69 4 -161 9 -205 11 -93 5 -1432 14 -1437 9z m-1852 -6836 l-1
-3751 -335 -100 c-184 -55 -387 -115 -450 -133 -63 -19 -169 -50 -235 -70 -66
-19 -131 -38 -144 -41 -14 -3 -28 -7 -33 -10 -4 -3 -16 -7 -25 -9 -10 -2 -169
-49 -353 -103 -630 -188 -813 -242 -1135 -336 -104 -31 -226 -67 -270 -81 -97
-29 -242 -72 -390 -115 -60 -18 -137 -40 -170 -50 -50 -16 -323 -97 -605 -180
-36 -10 -157 -47 -270 -81 -113 -33 -209 -62 -215 -63 -28 -7 -105 -29 -143
-42 -23 -8 -49 -14 -56 -14 -10 0 -13 681 -13 3746 l0 3746 71 33 c39 18 96
44 126 58 30 13 75 34 100 45 102 46 161 72 166 72 3 0 29 11 59 25 435 199
1378 533 2005 711 47 13 110 31 140 40 62 19 94 27 440 114 135 34 256 64 270
66 14 3 61 14 105 24 70 17 374 82 445 95 14 3 36 7 50 10 30 6 135 25 170 31
14 3 48 9 75 14 28 5 66 12 85 15 19 3 42 8 50 10 8 2 35 7 60 10 25 3 56 8
70 10 62 13 76 15 129 21 31 3 59 8 63 10 3 2 33 7 65 10 32 4 60 8 62 10 2 2
12 4 21 4 17 0 18 -215 16 -3751z m5029 3740 c80 -11 67 -9 280 -44 132 -21
431 -75 510 -91 11 -3 36 -7 55 -10 19 -3 51 -9 70 -14 19 -5 46 -11 60 -14
14 -2 70 -14 125 -26 55 -12 111 -23 125 -26 14 -3 116 -27 226 -54 111 -27
213 -51 225 -54 13 -3 85 -21 159 -41 74 -20 144 -38 154 -40 213 -49 1237
-374 1401 -445 11 -5 81 -31 155 -58 180 -67 291 -110 312 -122 10 -6 22 -10
27 -10 17 0 590 -246 811 -348 631 -291 1436 -724 1895 -1020 22 -14 58 -37
80 -50 22 -14 59 -38 82 -54 23 -15 44 -28 47 -28 7 0 498 -329 621 -417 311
-222 553 -403 815 -611 261 -208 528 -432 706 -592 104 -93 229 -206 253 -228
277 -252 870 -847 1067 -1072 21 -24 50 -56 64 -70 14 -14 74 -81 134 -150 60
-69 121 -138 135 -155 263 -301 652 -794 921 -1165 124 -172 171 -239 326
-470 65 -96 122 -176 126 -178 4 -2 8 -8 8 -12 0 -5 34 -62 77 -127 113 -175
324 -519 406 -663 10 -19 45 -80 77 -135 32 -55 69 -120 82 -145 59 -107 88
-160 133 -245 26 -49 63 -119 82 -154 158 -291 437 -883 608 -1291 42 -102 83
-198 90 -215 72 -164 274 -710 374 -1010 69 -207 206 -646 216 -692 2 -10 9
-34 15 -53 10 -33 138 -508 145 -540 2 -8 29 -121 59 -250 30 -129 57 -246 60
-260 2 -14 16 -79 30 -145 15 -66 29 -132 31 -147 3 -15 14 -72 24 -125 24
-119 43 -221 46 -248 2 -11 6 -33 9 -50 6 -33 35 -205 41 -245 20 -123 29
-187 40 -260 4 -25 8 -56 10 -70 5 -31 33 -249 41 -310 3 -25 7 -61 10 -80 3
-19 7 -60 10 -90 2 -30 6 -71 9 -90 7 -57 23 -217 30 -310 3 -36 7 -87 10
-115 15 -164 20 -247 30 -440 3 -66 8 -147 10 -180 17 -249 23 -1102 11 -1395
-14 -322 -22 -471 -31 -600 -11 -158 -17 -237 -20 -270 -2 -19 -6 -71 -10
-115 -3 -44 -8 -91 -10 -105 -2 -14 -6 -61 -10 -105 -3 -44 -8 -87 -10 -95 -2
-8 -7 -46 -10 -85 -6 -67 -8 -89 -20 -173 -3 -20 -8 -59 -11 -87 -2 -27 -7
-61 -9 -75 -2 -14 -13 -92 -25 -175 -11 -82 -22 -161 -25 -175 -2 -14 -6 -41
-9 -60 -3 -19 -11 -73 -20 -120 -8 -47 -17 -98 -19 -115 -9 -57 -18 -110 -27
-155 -5 -25 -11 -58 -14 -75 -2 -16 -7 -41 -10 -55 -3 -14 -8 -38 -11 -55 -16
-86 -25 -132 -29 -155 -7 -31 -25 -118 -30 -145 -19 -96 -106 -469 -146 -630
-59 -235 -53 -210 -80 -310 -12 -44 -27 -102 -35 -130 -11 -45 -45 -161 -110
-380 -61 -206 -210 -660 -225 -687 -6 -10 -10 -23 -10 -28 0 -22 -289 -787
-330 -875 -5 -11 -43 -99 -84 -195 -280 -663 -693 -1478 -1026 -2027 -22 -36
-40 -67 -40 -69 0 -3 -11 -21 -24 -42 -13 -20 -54 -86 -91 -147 -37 -60 -82
-132 -100 -160 -108 -168 -139 -216 -242 -370 -131 -198 -158 -237 -306 -445
-109 -152 -366 -500 -377 -510 -3 -3 -19 -23 -36 -45 -16 -22 -36 -49 -46 -60
-9 -11 -53 -67 -99 -125 -45 -58 -85 -107 -88 -110 -3 -3 -33 -39 -66 -80 -56
-71 -323 -384 -391 -460 -17 -19 -77 -87 -134 -150 -123 -137 -335 -362 -517
-549 l-133 -136 0 7833 0 7832 -2470 0 -2470 0 -2 -3757 -3 -3756 -40 -13
c-22 -7 -89 -27 -150 -44 -60 -18 -137 -40 -170 -51 -33 -10 -283 -84 -555
-164 -272 -80 -533 -157 -580 -171 -135 -41 -216 -65 -350 -104 -41 -12 -92
-28 -112 -36 -21 -7 -38 -12 -38 -9 0 2 -12 0 -27 -6 -25 -10 -176 -55 -213
-64 -8 -2 -98 -29 -200 -60 -102 -31 -198 -60 -215 -65 -61 -16 -141 -39 -170
-48 -27 -9 -140 -43 -390 -117 -94 -27 -627 -185 -800 -237 -55 -16 -120 -36
-145 -43 -25 -7 -92 -27 -150 -44 -58 -16 -202 -59 -320 -94 l-215 -63 1
11370 c1 6254 2 11374 3 11379 1 9 1 9 86 -4z m-14809 -12709 l-1 -7830 2469
2 2469 3 1 3230 1 3229 80 24 c44 13 94 27 110 32 17 4 77 22 135 40 58 17
116 33 129 36 14 3 28 7 33 10 4 3 16 7 25 9 10 2 133 38 273 80 140 42 390
116 555 165 165 49 408 121 540 160 132 40 353 105 490 145 138 41 336 99 440
130 338 101 420 125 435 129 30 8 535 158 550 163 8 3 20 7 25 8 6 2 179 53
385 114 206 62 383 114 393 116 16 4 149 43 218 65 l27 8 0 -10855 0 -10855
-47 6 c-25 3 -57 8 -71 10 -49 9 -105 17 -145 22 -22 3 -59 9 -83 15 -24 5
-62 12 -85 14 -36 5 -63 9 -172 30 -11 2 -49 9 -85 15 -36 6 -85 15 -110 20
-25 5 -56 12 -70 14 -126 23 -413 84 -545 116 -44 10 -91 21 -105 24 -20 4
-193 46 -250 61 -8 2 -34 8 -57 14 -24 6 -62 16 -85 21 -80 20 -373 101 -472
132 -54 16 -106 31 -115 33 -65 14 -580 182 -851 278 -339 120 -844 319 -1075
422 -16 8 -102 46 -190 85 -88 40 -194 88 -235 107 -128 59 -710 349 -810 403
-52 29 -131 71 -175 95 -224 120 -710 404 -880 514 -22 14 -49 31 -60 38 -160
97 -602 395 -823 553 -96 69 -183 132 -195 140 -101 69 -694 530 -767 596 -8
8 -49 42 -90 76 -80 67 -264 224 -315 268 -134 119 -222 198 -240 215 -21 20
-233 217 -289 268 -140 129 -564 559 -772 783 -347 373 -791 901 -1080 1284
-43 58 -81 107 -84 110 -3 3 -17 21 -30 40 -21 30 -184 254 -208 285 -81 107
-492 720 -492 735 0 5 -4 10 -10 10 -5 0 -10 5 -10 11 0 6 -13 29 -29 52 -33
47 -231 367 -231 373 0 2 -15 27 -34 56 -29 46 -58 96 -143 248 -11 19 -50 88
-87 152 -36 65 -71 128 -76 140 -6 13 -18 37 -28 53 -79 129 -370 714 -517
1035 -29 63 -62 135 -73 160 -11 25 -42 95 -67 155 -26 61 -55 128 -65 150
-23 52 -126 307 -185 460 -26 66 -51 129 -55 140 -32 74 -162 443 -254 720
-70 207 -243 783 -261 865 -2 8 -22 85 -44 170 -63 238 -174 715 -207 890 -3
14 -16 79 -29 145 -13 66 -29 147 -35 180 -5 33 -12 71 -15 85 -7 33 -23 127
-29 165 -3 17 -12 71 -20 120 -8 50 -18 108 -21 130 -3 23 -7 51 -10 63 -2 13
-11 75 -20 140 -9 64 -18 128 -20 142 -2 14 -7 48 -10 75 -3 28 -7 64 -10 80
-2 17 -7 50 -10 75 -2 25 -7 63 -9 85 -6 51 -24 225 -31 290 -2 28 -7 73 -10
100 -6 64 -13 139 -20 240 -3 44 -8 107 -11 140 -8 97 -19 295 -31 550 -15
329 -7 1427 12 1650 2 22 6 92 10 155 3 63 8 138 10 165 3 28 7 82 10 120 3
39 7 94 10 123 3 28 7 78 10 110 9 98 16 166 20 197 2 17 7 61 10 100 4 38 9
78 11 88 2 10 6 45 9 78 4 33 8 68 10 77 1 9 6 46 10 82 4 36 9 72 10 81 2 9
6 40 10 70 7 59 13 100 20 139 2 14 7 45 10 70 3 25 8 56 10 70 3 14 7 41 10
60 3 19 7 46 10 60 3 14 7 41 10 60 3 19 7 46 10 60 3 14 7 41 10 60 19 116
103 546 142 720 24 113 47 214 49 225 2 11 36 146 74 300 39 154 73 287 75
295 2 8 4 15 5 15 1 0 3 9 5 20 2 11 11 43 19 70 8 28 24 84 36 125 12 41 26
89 31 105 83 280 110 371 166 540 96 293 272 789 313 880 5 11 41 99 79 195
230 582 603 1371 891 1885 9 17 32 57 50 90 64 116 223 390 241 417 11 14 19
29 19 32 0 4 12 25 27 49 25 38 91 144 159 257 136 224 473 721 673 993 64 87
123 168 131 181 31 46 361 470 433 556 7 8 68 83 136 165 69 83 131 157 140
166 9 9 27 29 41 45 68 80 215 250 220 254 3 3 51 54 105 115 55 60 118 129
140 153 56 61 447 462 450 462 1 0 2 -3524 1 -7830z m19564 -16978 l0 -3229
-229 -102 c-125 -55 -288 -126 -362 -157 -74 -31 -153 -65 -176 -75 -23 -10
-48 -19 -55 -19 -8 0 -18 -4 -23 -8 -6 -5 -77 -35 -160 -66 -82 -32 -161 -62
-175 -68 -143 -59 -755 -269 -1005 -344 -206 -63 -330 -99 -445 -131 -142 -39
-731 -191 -772 -198 -16 -3 -56 -12 -90 -20 -35 -8 -78 -17 -97 -20 -19 -3
-37 -8 -41 -10 -4 -2 -20 -6 -36 -9 -16 -3 -83 -17 -149 -30 -66 -14 -131 -27
-145 -29 -14 -3 -86 -16 -160 -30 -74 -14 -178 -33 -230 -41 -52 -9 -106 -18
-120 -21 -13 -3 -42 -7 -65 -10 -22 -3 -78 -12 -125 -20 -47 -7 -107 -16 -135
-20 l-50 -6 0 3220 c0 2134 3 3223 10 3229 6 6 111 40 235 76 124 37 340 101
480 142 140 41 293 87 340 100 47 14 96 29 110 34 14 5 97 30 185 55 229 67
852 251 885 262 30 10 375 111 400 118 18 4 130 38 225 67 39 12 75 23 80 24
11 2 1220 360 1355 401 47 14 105 31 130 39 94 27 395 118 408 123 1 1 2
-1452 2 -3227z"/>
</g>
</svg>
